<?xml version="1.0" encoding="utf-8"?>
<!-- Generator: Adobe Illustrator 21.0.2, SVG Export Plug-In . SVG Version: 6.00 Build 0)  -->
<svg version="1.1" id="Layer_1" xmlns="http://www.w3.org/2000/svg" xmlns:xlink="http://www.w3.org/1999/xlink" x="0px" y="0px"
	 viewBox="0 0 24.3 24.1" style="enable-background:new 0 0 24.3 24.1;" xml:space="preserve">
<style type="text/css">
	.st0{enable-background:new    ;}
</style>
<g class="st0">
	<path d="M19.6,19.6v3.8c0,0.2-0.1,0.4-0.2,0.5s-0.3,0.2-0.6,0.2H5.3c-0.2,0-0.3-0.1-0.5-0.2s-0.2-0.3-0.2-0.5v-3.8h-3
		c-0.4,0-0.8-0.1-1.1-0.4s-0.4-0.6-0.4-1.1V7.6c0-0.4,0.1-0.8,0.4-1.1s0.6-0.4,1.1-0.4h3V0.8c0-0.2,0.1-0.4,0.2-0.5s0.3-0.2,0.5-0.2
		h13.5c0.2,0,0.4,0.1,0.6,0.2s0.2,0.3,0.2,0.5v5.3h3c0.4,0,0.8,0.1,1.1,0.4s0.4,0.6,0.4,1.1v10.5c0,0.4-0.1,0.8-0.4,1.1
		s-0.6,0.4-1.1,0.4H19.6z M19,7.6C19,7.6,18.9,7.6,19,7.6H5.4H5.3H1.6v10.5h3v-4.5c0-0.2,0.1-0.4,0.2-0.5c0.1-0.1,0.3-0.2,0.5-0.2
		h13.5c0.2,0,0.4,0.1,0.6,0.2c0.1,0.1,0.2,0.3,0.2,0.5v4.5h3.1V7.6H19z M6.1,22.6h12.1v-3.4c0,0-0.1-0.1-0.1-0.2s0-0.1,0-0.1
		s0-0.1,0-0.1s0-0.1,0.1-0.2v-4.2H6.1v4.5V22.6z M18.1,1.6h-12v4.5h12V1.6z M18.1,9.8c0-0.2,0.1-0.4,0.2-0.5s0.3-0.2,0.5-0.2h0.8
		c0.2,0,0.4,0.1,0.6,0.2s0.2,0.3,0.2,0.5s-0.1,0.4-0.2,0.5s-0.3,0.2-0.6,0.2h-0.8c-0.2,0-0.4-0.1-0.5-0.2S18.1,10,18.1,9.8z"/>
</g>
</svg>
