<?xml version="1.0" standalone="no"?>
<!DOCTYPE svg PUBLIC "-//W3C//DTD SVG 20010904//EN"
 "http://www.w3.org/TR/2001/REC-SVG-20010904/DTD/svg10.dtd">
<svg version="1.0" xmlns="http://www.w3.org/2000/svg"
 width="187.000000pt" height="172.000000pt" viewBox="0 0 187.000000 172.000000"
 preserveAspectRatio="xMidYMid meet">

<g transform="translate(0.000000,172.000000) scale(0.100000,-0.100000)"
fill="#000000" stroke="none">
<path d="M1412 1390 c-35 -21 -62 -72 -62 -115 l0 -25 -155 0 -155 0 0 -50 c0
-37 4 -50 14 -50 9 0 16 12 18 33 2 24 8 33 26 35 19 3 22 -1 22 -32 0 -24 5
-36 14 -36 15 0 26 21 26 51 0 17 8 19 95 19 95 0 95 0 95 -25 0 -43 27 -94
62 -115 26 -17 45 -20 87 -17 47 3 59 9 88 40 33 36 33 38 33 133 l0 96 -39
39 c-34 35 -44 39 -87 39 -31 0 -61 -7 -82 -20z m145 -44 c27 -23 28 -28 28
-111 0 -83 -1 -88 -28 -111 -20 -17 -40 -24 -70 -24 -74 1 -97 35 -97 143 0
65 3 77 25 101 33 36 101 37 142 2z"/>
<path d="M550 1295 l-135 -51 -3 -141 -3 -141 36 -12 c44 -15 44 -23 0 -39
l-35 -12 0 -139 0 -139 35 -12 c44 -16 44 -24 0 -39 l-36 -12 3 -140 3 -141
110 -43 c160 -63 152 -63 301 -6 l129 49 3 37 3 36 238 0 c171 0 240 3 249 12
9 9 12 90 12 303 l0 290 -66 68 -65 67 -184 0 -184 0 -3 76 -3 76 -135 53
-136 52 -134 -52z m273 -41 c21 -7 43 -16 49 -20 5 -3 -34 -24 -87 -45 l-97
-38 -99 37 c-54 20 -99 39 -99 42 0 3 44 21 98 41 l97 36 50 -19 c28 -11 67
-26 88 -34z m-245 -101 l92 -36 0 -104 c0 -76 -3 -103 -12 -102 -7 0 -56 17
-108 38 l-95 37 -3 108 c-2 100 -1 108 15 102 10 -4 60 -23 111 -43z m340 -60
l-3 -107 -95 -37 c-52 -21 -101 -38 -108 -38 -9 -1 -12 11 -10 42 3 42 3 42
63 63 36 13 61 28 63 38 4 20 -13 20 -68 1 -59 -21 -60 -20 -60 24 l0 39 103
40 c56 23 106 41 110 41 4 1 6 -47 5 -106z m392 -97 l0 -55 53 -3 52 -3 3
-272 2 -273 -229 0 -230 0 -3 83 c-3 82 -3 82 -35 96 -18 8 -33 17 -33 21 0 3
16 12 35 19 l35 12 0 139 0 138 -42 17 -43 18 30 10 c46 15 55 26 55 68 l0 39
175 0 175 0 0 -54z m66 -7 c19 -21 19 -21 -6 -18 -14 2 -26 12 -28 22 -5 23
11 22 34 -4z m-759 -104 l67 -26 71 26 c58 22 76 24 99 15 16 -6 27 -12 25
-14 -2 -3 -47 -21 -100 -40 l-96 -36 -94 35 c-51 20 -95 38 -98 40 -4 4 36 23
51 24 4 1 38 -10 75 -24z m11 -92 l42 -15 0 -108 0 -109 -67 26 c-38 14 -87
32 -110 41 l-43 16 0 108 0 107 68 -26 c37 -14 86 -32 110 -40z m292 -40 l0
-108 -99 -37 c-54 -21 -103 -38 -109 -38 -7 0 -12 16 -12 39 0 38 1 39 58 61
68 28 80 36 65 51 -7 7 -26 4 -64 -10 -30 -12 -55 -21 -56 -21 -2 0 -3 20 -3
43 l0 44 108 41 c59 22 108 41 110 41 1 1 2 -47 2 -106z m-294 -214 l62 -23
69 28 c65 26 72 27 98 13 l28 -14 -94 -37 c-52 -20 -98 -36 -104 -36 -5 0 -52
16 -104 36 -90 35 -93 37 -70 50 27 15 30 15 115 -17z m294 -128 l0 -108 -92
-36 c-51 -19 -101 -38 -110 -42 -15 -6 -18 -1 -18 34 0 42 0 42 65 71 36 16
65 34 65 39 0 20 -20 20 -65 1 -26 -11 -51 -20 -56 -20 -6 0 -9 19 -7 42 l3
42 105 42 c58 24 106 43 108 43 1 1 2 -48 2 -108z m-350 61 l95 -38 3 -108 c2
-101 1 -108 -15 -101 -10 3 -60 23 -110 42 l-93 36 0 103 c0 77 3 104 13 103
6 0 55 -17 107 -37z"/>
<path d="M996 862 c-2 -4 -1 -13 3 -20 6 -9 48 -12 162 -10 129 3 154 5 154
18 0 13 -25 15 -157 18 -86 1 -159 -1 -162 -6z"/>
<path d="M997 754 c-18 -19 19 -24 164 -24 135 0 159 2 159 15 0 13 -24 15
-158 15 -87 0 -162 -3 -165 -6z"/>
<path d="M996 642 c-2 -4 -1 -13 3 -20 6 -9 48 -12 162 -10 129 3 154 5 154
18 0 13 -25 15 -157 18 -86 1 -159 -1 -162 -6z"/>
</g>
</svg>
