<?xml version="1.0" standalone="no"?>
<!DOCTYPE svg PUBLIC "-//W3C//DTD SVG 20010904//EN"
 "http://www.w3.org/TR/2001/REC-SVG-20010904/DTD/svg10.dtd">
<svg version="1.0" xmlns="http://www.w3.org/2000/svg"
 width="111.000000pt" height="108.000000pt" viewBox="0 0 111.000000 108.000000"
 preserveAspectRatio="xMidYMid meet">

<g transform="translate(0.000000,108.000000) scale(0.100000,-0.100000)"
fill="#000000" stroke="none">
<path d="M247 907 l-237 -152 2 -40 c2 -28 7 -40 18 -39 8 1 112 63 230 139
118 76 222 140 231 142 9 3 118 -61 242 -141 125 -80 231 -146 237 -146 5 0
10 19 10 43 l0 43 -230 148 c-127 81 -238 150 -248 152 -10 2 -119 -61 -255
-149z"/>
<path d="M280 766 l-205 -133 0 -264 0 -264 67 -3 68 -3 0 189 c0 164 2 191
16 196 20 8 288 8 308 0 14 -5 16 -32 16 -195 l0 -189 55 0 55 0 0 143 c0 133
2 145 21 166 31 33 82 52 160 58 l69 6 0 83 0 82 -203 131 c-112 72 -208 131
-213 130 -5 0 -101 -60 -214 -133z m283 14 c81 -64 34 -190 -70 -190 -59 0
-110 65 -99 126 14 72 111 109 169 64z"/>
<path d="M468 739 c-25 -14 -23 -62 3 -85 19 -17 23 -17 47 -3 32 17 40 59 17
83 -19 18 -42 20 -67 5z"/>
<path d="M260 265 l0 -165 120 0 120 0 0 165 0 165 -120 0 -120 0 0 -165z"/>
<path d="M797 406 c-32 -7 -65 -20 -74 -29 -15 -15 -15 -18 1 -36 49 -54 303
-54 352 1 18 19 18 20 -3 38 -24 19 -126 41 -184 39 -19 0 -60 -6 -92 -13z"/>
<path d="M710 265 c0 -8 15 -22 33 -32 47 -26 267 -26 315 0 17 10 32 24 32
31 0 12 -7 12 -47 0 -61 -18 -235 -18 -288 1 -49 18 -45 18 -45 0z"/>
<path d="M712 172 c6 -36 75 -57 188 -57 113 0 182 21 188 57 3 17 1 17 -35 1
-54 -24 -252 -24 -306 0 -36 16 -38 16 -35 -1z"/>
<path d="M710 82 c0 -16 35 -40 75 -51 94 -26 284 -3 299 36 9 23 5 24 -49 8
-63 -19 -208 -19 -271 0 -58 18 -54 17 -54 7z"/>
</g>
</svg>
