<?xml version="1.0" standalone="no"?>
<!DOCTYPE svg PUBLIC "-//W3C//DTD SVG 20010904//EN"
 "http://www.w3.org/TR/2001/REC-SVG-20010904/DTD/svg10.dtd">
<svg version="1.0" xmlns="http://www.w3.org/2000/svg"
 width="200.000000pt" height="200.000000pt" viewBox="0 0 200.000000 200.000000"
 preserveAspectRatio="xMidYMid meet">
<metadata>
Created by potrace 1.16, written by Peter Selinger 2001-2019
</metadata>
<g transform="translate(0.000000,200.000000) scale(0.100000,-0.100000)"
fill="#000000" stroke="none">
<path d="M800 1916 l0 -33 -72 -8 c-330 -32 -594 -292 -638 -627 -28 -213 54
-443 213 -596 36 -34 70 -62 75 -62 5 0 21 17 35 39 l25 38 -72 74 c-233 238
-234 610 -1 845 39 40 99 87 136 107 71 40 198 77 261 77 37 0 38 -1 38 -35 0
-19 3 -35 8 -34 13 1 165 114 169 125 3 9 -155 124 -171 124 -3 0 -6 -15 -6
-34z"/>
<path d="M1196 1706 c-14 -19 -26 -38 -26 -42 0 -3 29 -35 64 -71 73 -73 135
-181 161 -283 23 -89 16 -250 -14 -340 -63 -181 -211 -328 -391 -384 -41 -13
-100 -26 -130 -27 l-55 -3 -3 33 c-2 23 -7 31 -18 27 -25 -10 -164 -106 -164
-114 0 -9 161 -122 172 -122 4 0 8 15 10 33 l3 32 75 7 c120 12 218 49 324
120 l58 40 43 -42 c32 -32 41 -47 37 -65 -12 -66 4 -92 156 -248 81 -82 167
-163 191 -178 72 -47 139 -35 196 33 24 29 27 38 23 90 l-4 59 -155 157 c-189
193 -207 207 -270 207 -42 0 -53 5 -88 39 l-39 38 33 47 c204 284 171 672 -79
922 -37 38 -72 69 -76 69 -4 0 -19 -15 -34 -34z"/>
<path d="M730 1584 c-6 -14 -10 -36 -10 -49 0 -34 -84 -73 -115 -54 -77 48
-70 48 -120 -1 -25 -24 -45 -48 -45 -53 0 -4 11 -23 25 -41 30 -39 30 -38 9
-93 -15 -39 -20 -43 -60 -49 -24 -3 -48 -12 -54 -19 -6 -7 -10 -40 -8 -72 l3
-58 51 -9 c49 -8 52 -10 71 -56 l20 -47 -28 -38 c-16 -21 -29 -42 -29 -46 0
-17 63 -79 85 -85 15 -4 36 3 62 20 l40 26 46 -20 c37 -17 47 -26 47 -45 0
-13 4 -35 10 -50 9 -25 13 -26 71 -23 68 3 74 9 84 69 5 32 11 39 51 54 45 17
45 17 79 -9 18 -14 40 -26 47 -26 16 0 98 81 98 95 0 6 -13 25 -29 44 l-28 34
20 48 c19 44 24 49 62 55 63 9 66 13 63 85 l-3 64 -50 9 c-47 8 -52 12 -68 50
-22 53 -22 53 8 92 14 18 25 39 25 46 0 18 -72 88 -90 88 -8 0 -30 -11 -49
-25 -36 -24 -36 -24 -84 -7 -41 15 -48 21 -53 52 -12 72 -10 70 -80 70 -60 0
-65 -2 -74 -26z m155 -243 c137 -62 152 -254 26 -336 -99 -65 -234 -27 -282
80 -74 162 94 330 256 256z"/>
<path d="M748 1265 c-55 -31 -73 -105 -39 -161 57 -94 203 -52 205 60 1 38 -4
51 -30 77 -37 37 -95 47 -136 24z"/>
</g>
</svg>
