<?xml version="1.0" standalone="no"?>
<!DOCTYPE svg PUBLIC "-//W3C//DTD SVG 20010904//EN"
 "http://www.w3.org/TR/2001/REC-SVG-20010904/DTD/svg10.dtd">
<svg version="1.0" xmlns="http://www.w3.org/2000/svg"
 width="183.000000pt" height="200.000000pt" viewBox="0 0 183.000000 200.000000"
 preserveAspectRatio="xMidYMid meet">
<metadata>
Created by potrace 1.16, written by Peter Selinger 2001-2019
</metadata>
<g transform="translate(0.000000,200.000000) scale(0.100000,-0.100000)"
fill="#000000" stroke="none">
<path d="M1379 1951 c-52 -53 -32 -141 36 -159 43 -11 70 -4 99 25 58 58 14
163 -69 163 -27 0 -44 -8 -66 -29z"/>
<path d="M965 1848 c-2 -7 -6 -29 -7 -48 l-3 -35 -130 -5 -130 -5 -3 -367 -2
-368 -124 0 c-113 0 -125 -2 -131 -19 -3 -10 -3 -26 1 -35 5 -14 24 -16 130
-16 l124 0 0 -365 c0 -350 1 -365 19 -375 11 -5 71 -10 135 -10 l115 0 3 -42
c4 -58 26 -60 91 -9 77 59 97 80 91 95 -5 12 -108 100 -142 120 -22 13 -42
-14 -42 -55 l0 -39 -100 0 -100 0 0 340 0 340 100 0 100 0 0 -39 c0 -65 21
-70 84 -22 87 68 108 89 99 105 -4 8 -37 37 -72 66 -80 63 -105 64 -109 3 l-3
-43 -100 0 -99 0 0 340 0 340 100 0 100 0 0 -44 c0 -57 20 -66 71 -30 65 45
120 100 114 115 -9 21 -141 119 -160 119 -8 0 -18 -6 -20 -12z"/>
<path d="M1326 1729 c-44 -34 -66 -90 -66 -164 l0 -65 185 0 185 0 0 66 c0 76
-18 122 -62 159 -27 23 -38 25 -122 25 -80 0 -97 -3 -120 -21z"/>
<path d="M185 1228 c-41 -11 -65 -45 -65 -95 0 -84 100 -124 161 -64 73 73 5
186 -96 159z"/>
<path d="M1415 1229 c-102 -28 -77 -189 30 -189 52 0 95 44 95 97 -1 68 -58
110 -125 92z"/>
<path d="M153 1003 c-35 -3 -49 -11 -78 -45 -38 -46 -48 -79 -43 -153 l3 -50
180 0 180 0 3 55 c4 73 -10 119 -50 157 -28 25 -43 31 -93 35 -33 3 -79 3
-102 1z"/>
<path d="M1383 1003 c-35 -3 -49 -11 -78 -45 -38 -46 -48 -79 -43 -153 l3 -50
180 0 180 0 3 55 c4 73 -10 119 -50 157 -28 25 -43 31 -93 35 -33 3 -79 3
-102 1z"/>
<path d="M1379 471 c-51 -51 -37 -130 28 -157 42 -18 94 -5 118 29 43 62 -5
157 -80 157 -27 0 -44 -8 -66 -29z"/>
<path d="M1326 249 c-44 -34 -66 -90 -66 -164 l0 -65 185 0 185 0 0 66 c0 76
-18 122 -62 159 -27 23 -38 25 -122 25 -80 0 -97 -3 -120 -21z"/>
</g>
</svg>
