<?xml version="1.0" standalone="no"?>
<!DOCTYPE svg PUBLIC "-//W3C//DTD SVG 20010904//EN"
 "http://www.w3.org/TR/2001/REC-SVG-20010904/DTD/svg10.dtd">
<svg version="1.0" xmlns="http://www.w3.org/2000/svg"
 width="149.000000pt" height="155.000000pt" viewBox="0 0 149.000000 155.000000"
 preserveAspectRatio="xMidYMid meet">
<metadata>
Created by potrace 1.16, written by Peter Selinger 2001-2019
</metadata>
<g transform="translate(0.000000,155.000000) scale(0.100000,-0.100000)"
fill="#000000" stroke="none">
<path d="M522 1460 c-12 -22 -24 -30 -44 -30 l-28 0 0 -90 0 -90 120 0 120 0
0 90 0 90 -35 0 c-24 0 -35 5 -35 14 0 23 -29 46 -56 46 -17 0 -30 -9 -42 -30z"/>
<path d="M65 1378 c-3 -7 -4 -296 -3 -643 l3 -630 455 -3 c250 -1 462 0 470 4
12 4 8 11 -15 30 l-30 24 -387 0 c-338 0 -389 2 -402 16 -14 14 -16 70 -16
473 l0 457 113 112 c89 87 120 112 141 112 24 0 27 3 24 28 l-3 27 -173 3
c-132 2 -174 0 -177 -10z"/>
<path d="M716 1374 c-16 -42 -11 -44 115 -44 66 0 129 -5 140 -10 16 -9 19
-22 19 -80 l0 -70 40 0 41 0 -3 108 -3 107 -171 3 c-150 2 -172 0 -178 -14z"/>
<path d="M380 1207 c0 -59 -4 -97 -12 -105 -8 -8 -46 -12 -105 -12 l-93 0 0
-450 0 -450 373 0 374 0 -29 58 c-52 104 -39 225 33 321 l39 51 0 165 0 165
-31 0 c-21 0 -55 17 -105 51 -41 28 -74 53 -74 55 0 1 36 28 79 58 47 33 90
56 105 56 25 0 26 2 26 65 l0 65 -125 0 -125 0 0 -28 c0 -47 -14 -52 -145 -52
-131 0 -145 5 -145 52 0 21 -5 28 -20 28 -19 0 -20 -7 -20 -93z"/>
<path d="M270 1195 l-85 -85 83 0 c60 0 84 4 88 13 3 8 4 46 2 86 l-3 72 -85
-86z"/>
<path d="M920 1055 l0 -85 213 2 212 3 0 80 0 80 -212 3 -213 2 0 -85z"/>
<path d="M990 795 l0 -155 40 20 40 20 0 129 c0 139 -1 141 -56 141 l-24 0 0
-155z"/>
<path d="M1045 636 c-184 -85 -218 -338 -64 -469 155 -133 397 -58 455 140 38
131 -30 275 -156 332 -65 30 -169 28 -235 -3z m135 -61 c0 -32 3 -35 28 -35
40 0 62 -19 69 -63 4 -30 3 -37 -11 -37 -11 0 -16 9 -16 30 0 38 -23 50 -93
50 -66 0 -79 -13 -75 -72 l3 -43 80 -6 c65 -6 82 -11 97 -29 42 -51 7 -150
-52 -150 -25 0 -29 -4 -32 -32 -4 -46 -28 -49 -28 -4 0 33 -3 36 -28 36 -39 0
-75 39 -70 76 4 38 22 33 28 -8 l5 -33 80 0 80 0 3 43 c5 62 -8 72 -89 72 -87
0 -109 18 -109 85 0 54 25 85 70 85 28 0 30 3 30 35 0 24 5 35 15 35 10 0 15
-11 15 -35z"/>
</g>
</svg>
