<?xml version="1.0" standalone="no"?>
<!DOCTYPE svg PUBLIC "-//W3C//DTD SVG 20010904//EN"
 "http://www.w3.org/TR/2001/REC-SVG-20010904/DTD/svg10.dtd">
<svg version="1.0" xmlns="http://www.w3.org/2000/svg"
 width="128.000000pt" height="138.000000pt" viewBox="0 0 128.000000 138.000000"
 preserveAspectRatio="xMidYMid meet">
<metadata>
Created by potrace 1.16, written by Peter Selinger 2001-2019
</metadata>
<g transform="translate(0.000000,138.000000) scale(0.100000,-0.100000)"
fill="#000000" stroke="none">
<path d="M455 1327 c-15 -12 -30 -38 -34 -57 -7 -34 -8 -35 -59 -38 l-52 -3 0
-55 0 -54 122 0 c84 0 119 -3 112 -10 -7 -7 -57 -10 -129 -8 -118 3 -119 3
-125 28 -6 25 -7 25 -123 28 l-117 3 -10 -26 c-14 -37 -13 -1070 0 -1096 10
-18 27 -19 503 -19 370 0 496 3 505 12 8 8 12 47 12 110 0 95 -1 98 -31 133
-60 67 -19 48 60 -28 85 -83 120 -96 154 -59 35 39 23 59 -130 213 l-146 148
-44 -46 -43 -47 52 -53 c28 -29 49 -56 45 -60 -4 -4 -33 18 -65 49 -55 54 -58
56 -82 43 -106 -59 -270 -27 -357 68 -55 62 -77 120 -77 207 -1 62 4 85 27
132 54 111 153 172 277 173 62 0 85 -5 132 -28 65 -32 122 -90 151 -156 25
-56 28 -157 8 -219 -14 -43 -14 -43 16 -74 17 -17 36 -27 42 -24 15 10 15 609
1 637 -10 17 -22 19 -145 19 l-134 0 -9 -32 c-8 -31 -11 -33 -60 -36 -32 -2
-52 1 -52 7 0 6 20 11 45 11 l45 0 0 54 0 55 -52 3 c-51 3 -52 4 -59 38 -10
50 -50 80 -104 80 -31 0 -52 -7 -70 -23z m-165 -617 l0 -91 -92 3 -93 3 -3 74
c-2 41 -1 80 2 88 4 9 29 13 96 13 l90 0 0 -90z m0 -520 l0 -91 -92 3 -93 3
-3 74 c-2 41 -1 80 2 88 4 9 29 13 96 13 l90 0 0 -90z"/>
<path d="M130 710 l0 -70 70 0 70 0 0 70 0 70 -70 0 -70 0 0 -70z"/>
<path d="M130 190 l0 -70 70 0 70 0 0 70 0 70 -70 0 -70 0 0 -70z"/>
<path d="M637 990 c-136 -34 -221 -143 -220 -282 1 -168 130 -287 301 -276
155 9 252 110 260 269 5 88 -13 140 -67 202 -61 69 -185 109 -274 87z m63 -39
c0 -5 -18 -12 -40 -16 -104 -18 -186 -118 -184 -224 2 -128 98 -221 226 -221
69 1 125 27 170 80 67 78 72 182 12 273 -31 47 -22 64 12 22 126 -157 8 -399
-196 -399 -93 0 -178 53 -223 138 -48 92 -18 231 64 298 54 44 159 76 159 49z"/>
</g>
</svg>
