<svg xmlns="http://www.w3.org/2000/svg" xmlns:xlink="http://www.w3.org/1999/xlink" width="50" zoomAndPan="magnify" viewBox="0 0 37.5 37.499999" height="50" preserveAspectRatio="xMidYMid meet" version="1.0"><defs><g/><clipPath id="f7ef95e1d3"><path d="M 10 8 L 28 8 L 28 19 L 10 19 Z M 10 8 " clip-rule="nonzero"/></clipPath><clipPath id="8dbb6c046f"><path d="M -0.464844 7.136719 L 31.417969 -2.5 L 37.414062 17.335938 L 5.53125 26.972656 Z M -0.464844 7.136719 " clip-rule="nonzero"/></clipPath><clipPath id="ceb689a69c"><path d="M -0.464844 7.136719 L 31.417969 -2.5 L 37.414062 17.335938 L 5.53125 26.972656 Z M -0.464844 7.136719 " clip-rule="nonzero"/></clipPath><clipPath id="fcb699b115"><path d="M 1 2 L 34 2 L 34 17 L 1 17 Z M 1 2 " clip-rule="nonzero"/></clipPath><clipPath id="f09f9a6b1e"><path d="M -0.464844 7.136719 L 31.417969 -2.5 L 37.414062 17.335938 L 5.53125 26.972656 Z M -0.464844 7.136719 " clip-rule="nonzero"/></clipPath><clipPath id="70860a56e9"><path d="M -0.464844 7.136719 L 31.417969 -2.5 L 37.414062 17.335938 L 5.53125 26.972656 Z M -0.464844 7.136719 " clip-rule="nonzero"/></clipPath><clipPath id="dd7ccbe565"><path d="M 5 13 L 8 13 L 8 20 L 5 20 Z M 5 13 " clip-rule="nonzero"/></clipPath><clipPath id="7a8f25ddd8"><path d="M -0.464844 7.136719 L 31.417969 -2.5 L 37.414062 17.335938 L 5.53125 26.972656 Z M -0.464844 7.136719 " clip-rule="nonzero"/></clipPath><clipPath id="ff40fed19e"><path d="M -0.464844 7.136719 L 31.417969 -2.5 L 37.414062 17.335938 L 5.53125 26.972656 Z M -0.464844 7.136719 " clip-rule="nonzero"/></clipPath><clipPath id="5b6d1cdcb8"><path d="M 7 20 L 11 20 L 11 26 L 7 26 Z M 7 20 " clip-rule="nonzero"/></clipPath><clipPath id="46404ba15c"><path d="M -0.464844 7.136719 L 31.417969 -2.5 L 37.414062 17.335938 L 5.53125 26.972656 Z M -0.464844 7.136719 " clip-rule="nonzero"/></clipPath><clipPath id="536d4f335e"><path d="M -0.464844 7.136719 L 31.417969 -2.5 L 37.414062 17.335938 L 5.53125 26.972656 Z M -0.464844 7.136719 " clip-rule="nonzero"/></clipPath><clipPath id="38aee8a03c"><path d="M 7 21 L 9 21 L 9 26 L 7 26 Z M 7 21 " clip-rule="nonzero"/></clipPath><clipPath id="795cb6234d"><path d="M -0.464844 7.136719 L 31.417969 -2.5 L 37.414062 17.335938 L 5.53125 26.972656 Z M -0.464844 7.136719 " clip-rule="nonzero"/></clipPath><clipPath id="3125bdf883"><path d="M -0.464844 7.136719 L 31.417969 -2.5 L 37.414062 17.335938 L 5.53125 26.972656 Z M -0.464844 7.136719 " clip-rule="nonzero"/></clipPath><clipPath id="6d63c7f20a"><path d="M 8 23 L 10 23 L 10 26 L 8 26 Z M 8 23 " clip-rule="nonzero"/></clipPath><clipPath id="5d062793da"><path d="M -0.464844 7.136719 L 31.417969 -2.5 L 37.414062 17.335938 L 5.53125 26.972656 Z M -0.464844 7.136719 " clip-rule="nonzero"/></clipPath><clipPath id="fb943768cb"><path d="M -0.464844 7.136719 L 31.417969 -2.5 L 37.414062 17.335938 L 5.53125 26.972656 Z M -0.464844 7.136719 " clip-rule="nonzero"/></clipPath><clipPath id="70135771f4"><path d="M 9 21 L 11 21 L 11 26 L 9 26 Z M 9 21 " clip-rule="nonzero"/></clipPath><clipPath id="9a1063119e"><path d="M -0.464844 7.136719 L 31.417969 -2.5 L 37.414062 17.335938 L 5.53125 26.972656 Z M -0.464844 7.136719 " clip-rule="nonzero"/></clipPath><clipPath id="6b74600ec6"><path d="M -0.464844 7.136719 L 31.417969 -2.5 L 37.414062 17.335938 L 5.53125 26.972656 Z M -0.464844 7.136719 " clip-rule="nonzero"/></clipPath><clipPath id="ec1b02a246"><path d="M 6 18 L 9 18 L 9 21 L 6 21 Z M 6 18 " clip-rule="nonzero"/></clipPath><clipPath id="1970493002"><path d="M -0.464844 7.136719 L 31.417969 -2.5 L 37.414062 17.335938 L 5.53125 26.972656 Z M -0.464844 7.136719 " clip-rule="nonzero"/></clipPath><clipPath id="6a57262b0f"><path d="M -0.464844 7.136719 L 31.417969 -2.5 L 37.414062 17.335938 L 5.53125 26.972656 Z M -0.464844 7.136719 " clip-rule="nonzero"/></clipPath></defs><g fill="#ffb608" fill-opacity="1"><g transform="translate(9.028897, 31.275143)"><g><path d="M 0.609375 -21.921875 L 0.609375 -17.859375 L 7.203125 -17.859375 L 7.203125 0 L 11.765625 0 L 11.765625 -17.859375 L 18.3125 -17.859375 L 18.3125 -21.921875 Z M 0.609375 -21.921875 "/></g></g></g><g clip-path="url(#f7ef95e1d3)"><g clip-path="url(#8dbb6c046f)"><g clip-path="url(#ceb689a69c)"><path fill="#ffb608" d="M 15.804688 15.984375 C 17.988281 15.074219 20.71875 14.4375 23.109375 14.285156 C 24.503906 14.195312 26.785156 14.214844 27.769531 15.15625 C 27.746094 15.09375 27.714844 15.035156 27.671875 14.980469 C 27.449219 14.109375 27.210938 13.167969 26.96875 12.199219 C 26.964844 12.199219 26.964844 12.203125 26.964844 12.203125 C 26.769531 11.433594 26.570312 10.652344 26.375 9.878906 C 26.011719 9.117188 24.289062 8.738281 21.867188 8.886719 C 19.488281 9.035156 16.773438 9.652344 14.59375 10.542969 C 12.195312 11.523438 10.699219 12.71875 10.378906 13.914062 C 10.386719 14.015625 10.417969 14.253906 10.484375 14.484375 C 10.644531 15.039062 10.835938 15.714844 11.03125 16.402344 C 11.027344 16.402344 11.023438 16.402344 11.019531 16.402344 C 11.332031 17.511719 11.570312 18.378906 11.714844 18.9375 C 12.238281 18.054688 13.386719 16.996094 15.804688 15.984375 " fill-opacity="1" fill-rule="nonzero"/></g></g></g><g clip-path="url(#fcb699b115)"><g clip-path="url(#f09f9a6b1e)"><g clip-path="url(#70860a56e9)"><path fill="#ffb608" d="M 33.429688 4.871094 L 15.332031 2.390625 C 15.261719 2.382812 15.191406 2.402344 15.136719 2.449219 L 1.832031 14.175781 C 1.753906 14.242188 1.726562 14.355469 1.753906 14.460938 C 1.785156 14.5625 1.871094 14.640625 1.972656 14.65625 L 10.347656 16.003906 C 10.21875 15.542969 10.078125 15.050781 9.925781 14.527344 C 9.824219 14.167969 9.792969 13.804688 9.792969 13.789062 L 9.789062 13.742188 L 9.800781 13.695312 C 10.039062 12.710938 11.023438 11.253906 14.347656 9.894531 C 16.574219 8.984375 19.351562 8.351562 21.78125 8.203125 C 23.40625 8.101562 26.226562 8.144531 26.851562 9.566406 L 26.859375 9.589844 L 26.867188 9.617188 C 27.015625 10.203125 27.164062 10.792969 27.3125 11.378906 L 33.582031 5.347656 C 33.65625 5.273438 33.679688 5.164062 33.648438 5.0625 C 33.613281 4.957031 33.527344 4.882812 33.429688 4.871094 " fill-opacity="1" fill-rule="nonzero"/></g></g></g><g clip-path="url(#dd7ccbe565)"><g clip-path="url(#7a8f25ddd8)"><g clip-path="url(#ff40fed19e)"><path fill="#ff9a12" d="M 7.847656 19.53125 L 7.355469 19.671875 L 5.789062 14.132812 L 6.285156 13.992188 L 7.847656 19.53125 " fill-opacity="1" fill-rule="nonzero"/></g></g></g><g clip-path="url(#5b6d1cdcb8)"><g clip-path="url(#46404ba15c)"><g clip-path="url(#536d4f335e)"><path fill="#ff9a12" d="M 7.445312 20.386719 C 6.921875 21.84375 7.113281 23.558594 7.855469 25.476562 C 9.433594 26.15625 10.371094 25.832031 10.8125 24.742188 C 9.683594 20.957031 8.5625 19.246094 7.445312 20.386719 " fill-opacity="1" fill-rule="evenodd"/></g></g></g><g clip-path="url(#38aee8a03c)"><g clip-path="url(#795cb6234d)"><g clip-path="url(#3125bdf883)"><path fill="#e4a91d" d="M 8.847656 25.789062 L 7.578125 21.960938 L 8.285156 25.644531 C 8.484375 25.707031 8.671875 25.757812 8.847656 25.789062 " fill-opacity="1" fill-rule="evenodd"/></g></g></g><g clip-path="url(#6d63c7f20a)"><g clip-path="url(#5d062793da)"><g clip-path="url(#fb943768cb)"><path fill="#e4a91d" d="M 8.863281 23.46875 L 9.367188 25.101562 L 8.480469 23.035156 L 9.445312 25.71875 C 9.617188 25.71875 9.769531 25.703125 9.914062 25.667969 L 9.925781 25.664062 L 8.863281 23.46875 " fill-opacity="1" fill-rule="evenodd"/></g></g></g><g clip-path="url(#70135771f4)"><g clip-path="url(#9a1063119e)"><g clip-path="url(#6b74600ec6)"><path fill="#e4a91d" d="M 9.0625 21.867188 L 10.214844 25.554688 C 10.300781 25.492188 10.378906 25.421875 10.453125 25.339844 L 10 23.527344 L 9.722656 23.480469 L 9.0625 21.867188 " fill-opacity="1" fill-rule="evenodd"/></g></g></g><g clip-path="url(#ec1b02a246)"><g clip-path="url(#1970493002)"><g clip-path="url(#6a57262b0f)"><path fill="#e4a91d" d="M 7.539062 18.75 C 8.054688 18.621094 8.570312 18.914062 8.691406 19.402344 C 8.816406 19.894531 8.492188 20.394531 7.976562 20.523438 C 7.460938 20.652344 6.941406 20.359375 6.820312 19.871094 C 6.699219 19.378906 7.019531 18.878906 7.539062 18.75 " fill-opacity="1" fill-rule="evenodd"/></g></g></g></svg>