<?xml version="1.0" standalone="no"?>
<!DOCTYPE svg PUBLIC "-//W3C//DTD SVG 20010904//EN"
 "http://www.w3.org/TR/2001/REC-SVG-20010904/DTD/svg10.dtd">
<svg version="1.0" xmlns="http://www.w3.org/2000/svg"
 width="155.000000pt" height="195.000000pt" viewBox="0 0 155.000000 195.000000"
 preserveAspectRatio="xMidYMid meet">

<g transform="translate(0.000000,195.000000) scale(0.100000,-0.100000)"
fill="#000000" stroke="none">
<path d="M584 1891 c-23 -10 -45 -24 -48 -30 -4 -6 -34 -11 -68 -11 -54 0 -63
-3 -88 -30 l-28 -30 -122 0 -122 0 -34 -34 -34 -34 0 -714 c0 -784 -3 -740 60
-773 43 -22 771 -22 790 0 10 12 10 18 0 30 -11 13 -67 15 -391 15 -330 0
-380 2 -393 16 -14 14 -16 92 -16 710 0 684 0 694 20 714 19 19 31 20 133 18
l112 -3 0 -30 0 -30 -100 -5 -100 -5 0 -660 0 -660 323 -3 322 -2 0 25 0 25
-297 2 -298 3 -3 613 -2 612 80 0 c63 0 82 -3 87 -15 14 -39 54 -45 278 -45
224 0 264 6 278 45 5 12 24 15 87 15 l81 0 -3 -449 -3 -448 27 21 27 21 -2
450 -2 450 -100 5 -100 5 0 30 0 30 112 3 c169 4 153 57 153 -507 l0 -469 25
-4 25 -5 0 484 0 485 -34 34 -34 34 -122 0 -122 0 -28 30 c-25 27 -34 30 -88
30 -34 0 -64 5 -68 11 -9 15 -84 49 -109 49 -11 0 -39 -9 -61 -19z m126 -66
c20 -21 32 -25 86 -25 41 0 65 -5 73 -14 7 -9 11 -42 9 -88 l-3 -73 -230 0
-230 0 -3 73 c-2 46 2 79 9 88 8 9 32 14 73 14 54 0 66 4 86 25 18 19 34 25
65 25 31 0 47 -6 65 -25z"/>
<path d="M616 1804 c-30 -30 -13 -74 29 -74 42 0 59 44 29 74 -8 9 -22 16 -29
16 -7 0 -21 -7 -29 -16z"/>
<path d="M260 1325 l0 -145 145 0 145 0 0 62 0 61 -25 -23 c-14 -13 -25 -29
-25 -37 0 -10 -23 -13 -95 -13 l-95 0 0 95 0 95 93 0 c87 0 95 2 117 25 l23
25 -141 0 -142 0 0 -145z"/>
<path d="M498 1373 l-68 -67 -38 37 c-21 20 -46 37 -55 37 -32 0 -17 -36 38
-90 l55 -54 85 84 c47 47 84 92 83 100 -6 32 -36 18 -100 -47z"/>
<path d="M652 1378 c3 -23 5 -23 168 -23 163 0 165 0 168 23 l3 22 -171 0
-171 0 3 -22z"/>
<path d="M652 1268 c3 -23 5 -23 168 -23 163 0 165 0 168 23 l3 22 -171 0
-171 0 3 -22z"/>
<path d="M260 955 l0 -145 145 0 145 0 0 62 0 61 -25 -23 c-14 -13 -25 -29
-25 -37 0 -10 -23 -13 -95 -13 l-95 0 0 95 0 95 88 0 c81 0 90 2 112 25 l23
25 -136 0 -137 0 0 -145z"/>
<path d="M498 1013 l-68 -67 -39 38 c-41 40 -71 44 -71 8 0 -21 89 -112 111
-112 24 0 172 155 167 176 -6 36 -33 24 -100 -43z"/>
<path d="M653 1025 c-11 -31 13 -36 173 -33 151 3 159 4 159 23 0 19 -8 20
-163 23 -141 2 -163 0 -169 -13z"/>
<path d="M657 924 c-4 -4 -7 -16 -7 -26 0 -17 12 -18 171 -18 l170 0 -3 23
c-3 22 -6 22 -164 25 -88 1 -163 -1 -167 -4z"/>
<path d="M260 595 l0 -145 145 0 145 0 0 62 0 61 -25 -23 c-14 -13 -25 -29
-25 -37 0 -10 -23 -13 -95 -13 l-95 0 0 95 0 95 93 0 c87 0 95 2 117 25 l23
25 -141 0 -142 0 0 -145z"/>
<path d="M490 644 l-63 -65 -41 39 c-41 40 -66 45 -66 13 0 -21 90 -111 111
-111 20 0 169 152 169 173 0 11 -8 17 -23 17 -16 0 -44 -21 -87 -66z"/>
<path d="M1130 692 c0 -11 -9 -31 -21 -46 -24 -30 -72 -35 -107 -10 -21 15
-24 14 -58 -20 -34 -34 -35 -37 -20 -58 25 -35 20 -83 -10 -107 -15 -12 -35
-21 -45 -21 -23 0 -35 -43 -23 -78 6 -16 20 -29 39 -34 54 -14 72 -69 39 -117
-16 -22 -15 -24 19 -58 34 -34 36 -35 58 -19 50 34 103 15 120 -44 12 -39 14
-40 55 -40 41 0 44 2 63 45 24 55 57 67 108 40 l34 -19 36 37 c35 34 36 37 20
55 -38 42 -7 122 47 122 25 0 36 16 36 55 0 36 -10 55 -30 55 -9 0 -29 9 -44
21 -30 23 -36 78 -11 99 21 18 19 30 -12 62 -31 32 -40 34 -79 13 -16 -8 -34
-15 -40 -15 -23 0 -63 41 -66 68 -3 25 -7 27 -55 30 -47 3 -53 1 -53 -16z
m121 -215 c23 -15 38 -37 47 -65 13 -38 12 -46 -8 -86 -38 -80 -130 -98 -192
-39 -111 106 25 276 153 190z"/>
<path d="M662 671 c-8 -5 -12 -17 -10 -27 3 -17 15 -19 118 -22 l116 -3 29 31
29 30 -135 0 c-74 0 -140 -4 -147 -9z"/>
<path d="M652 538 c3 -22 7 -23 126 -26 l123 -3 -17 26 c-16 24 -20 25 -126
25 -108 0 -109 0 -106 -22z"/>
</g>
</svg>
