<?xml version="1.0" standalone="no"?>
<!DOCTYPE svg PUBLIC "-//W3C//DTD SVG 20010904//EN"
 "http://www.w3.org/TR/2001/REC-SVG-20010904/DTD/svg10.dtd">
<svg version="1.0" xmlns="http://www.w3.org/2000/svg"
 width="225.000000pt" height="225.000000pt" viewBox="0 0 225.000000 225.000000"
 preserveAspectRatio="xMidYMid meet">

<g transform="translate(0.000000,225.000000) scale(0.100000,-0.100000)"
fill="#000000" stroke="none">
<path d="M182 2067 l-132 -132 0 -603 0 -602 515 0 515 0 0 40 0 40 -470 0
-470 0 0 545 0 545 105 0 104 0 3 108 3 107 423 3 422 2 0 -95 0 -95 45 0 45
0 0 135 0 135 -488 0 -487 0 -133 -133z"/>
<path d="M1653 1792 l-363 -2 0 -55 0 -54 -84 -3 -85 -3 85 -130 c67 -104 84
-137 84 -167 l0 -38 -85 0 -85 0 85 -127 c69 -103 85 -135 85 -165 l0 -37 -85
-3 -85 -3 85 -127 85 -128 0 -95 0 -95 130 0 130 0 0 -255 0 -255 105 0 105 0
0 255 0 255 130 0 130 0 0 89 0 90 85 130 c47 71 85 132 85 135 0 3 -37 6 -82
8 l-83 3 -3 29 c-3 22 15 57 82 157 47 71 86 131 86 134 0 2 -37 5 -82 7 l-83
3 -3 30 c-2 23 17 60 87 168 l90 137 -89 0 -89 0 -3 58 -3 57 -362 -3z m282
-612 l0 -525 -277 -3 -278 -2 0 530 0 530 278 -2 277 -3 0 -525z"/>
<path d="M1614 1591 c-93 -57 -49 -201 61 -201 53 0 91 28 104 76 28 103 -75
180 -165 125z"/>
<path d="M1614 1271 c-90 -55 -47 -201 58 -201 66 0 109 41 111 104 3 93 -90
145 -169 97z"/>
<path d="M1644 969 c-82 -22 -107 -120 -46 -181 27 -27 40 -33 76 -33 128 0
152 179 29 214 -15 4 -42 4 -59 0z"/>
<path d="M330 1710 l0 -40 140 0 140 0 0 40 0 40 -140 0 -140 0 0 -40z"/>
<path d="M730 1710 l0 -40 135 0 135 0 0 40 0 40 -135 0 -135 0 0 -40z"/>
<path d="M337 1564 c-4 -4 -7 -25 -7 -46 l0 -38 141 0 140 0 -3 43 -3 42 -131
3 c-71 1 -133 -1 -137 -4z"/>
<path d="M730 1525 l0 -45 135 0 135 0 0 45 0 45 -135 0 -135 0 0 -45z"/>
<path d="M332 1328 l3 -43 135 0 135 0 3 43 3 42 -141 0 -141 0 3 -42z"/>
<path d="M730 1325 l0 -45 135 0 135 0 0 45 0 45 -135 0 -135 0 0 -45z"/>
<path d="M332 1138 l3 -43 135 0 135 0 3 43 3 42 -141 0 -141 0 3 -42z"/>
<path d="M730 1135 l0 -45 135 0 135 0 0 45 0 45 -135 0 -135 0 0 -45z"/>
</g>
</svg>
