<svg xmlns="http://www.w3.org/2000/svg" xmlns:xlink="http://www.w3.org/1999/xlink" width="50" zoomAndPan="magnify" viewBox="0 0 37.5 37.499999" height="50" preserveAspectRatio="xMidYMid meet" version="1.0"><defs><g/><clipPath id="03e9016646"><path d="M 10 8 L 28 8 L 28 19 L 10 19 Z M 10 8 " clip-rule="nonzero"/></clipPath><clipPath id="33e21669db"><path d="M -0.464844 7.136719 L 31.417969 -2.5 L 37.414062 17.335938 L 5.53125 26.972656 Z M -0.464844 7.136719 " clip-rule="nonzero"/></clipPath><clipPath id="ccbed3a41b"><path d="M -0.464844 7.136719 L 31.417969 -2.5 L 37.414062 17.335938 L 5.53125 26.972656 Z M -0.464844 7.136719 " clip-rule="nonzero"/></clipPath><clipPath id="03e0c01315"><path d="M -0.464844 7.136719 L 31.417969 -2.5 L 37.414062 17.335938 L 5.53125 26.972656 Z M -0.464844 7.136719 " clip-rule="nonzero"/></clipPath><clipPath id="ebb5ca7451"><path d="M 1 2 L 34 2 L 34 16 L 1 16 Z M 1 2 " clip-rule="nonzero"/></clipPath><clipPath id="561b8e6383"><path d="M -0.464844 7.136719 L 31.417969 -2.5 L 37.414062 17.335938 L 5.53125 26.972656 Z M -0.464844 7.136719 " clip-rule="nonzero"/></clipPath><clipPath id="a1f5839f84"><path d="M -0.464844 7.136719 L 31.417969 -2.5 L 37.414062 17.335938 L 5.53125 26.972656 Z M -0.464844 7.136719 " clip-rule="nonzero"/></clipPath><clipPath id="9d35ffe832"><path d="M -0.464844 7.136719 L 31.417969 -2.5 L 37.414062 17.335938 L 5.53125 26.972656 Z M -0.464844 7.136719 " clip-rule="nonzero"/></clipPath><clipPath id="a3e92d797f"><path d="M 5 13 L 8 13 L 8 20 L 5 20 Z M 5 13 " clip-rule="nonzero"/></clipPath><clipPath id="d61b9724d8"><path d="M -0.464844 7.136719 L 31.417969 -2.5 L 37.414062 17.335938 L 5.53125 26.972656 Z M -0.464844 7.136719 " clip-rule="nonzero"/></clipPath><clipPath id="c9e5fd03ee"><path d="M -0.464844 7.136719 L 31.417969 -2.5 L 37.414062 17.335938 L 5.53125 26.972656 Z M -0.464844 7.136719 " clip-rule="nonzero"/></clipPath><clipPath id="3627080eaf"><path d="M -0.464844 7.136719 L 31.417969 -2.5 L 37.414062 17.335938 L 5.53125 26.972656 Z M -0.464844 7.136719 " clip-rule="nonzero"/></clipPath><clipPath id="a5c41ee09f"><path d="M 7 19 L 11 19 L 11 26 L 7 26 Z M 7 19 " clip-rule="nonzero"/></clipPath><clipPath id="a5ff90a355"><path d="M -0.464844 7.136719 L 31.417969 -2.5 L 37.414062 17.335938 L 5.53125 26.972656 Z M -0.464844 7.136719 " clip-rule="nonzero"/></clipPath><clipPath id="69d18f8fb2"><path d="M -0.464844 7.136719 L 31.417969 -2.5 L 37.414062 17.335938 L 5.53125 26.972656 Z M -0.464844 7.136719 " clip-rule="nonzero"/></clipPath><clipPath id="e355641b74"><path d="M -0.464844 7.136719 L 31.417969 -2.5 L 37.414062 17.335938 L 5.53125 26.972656 Z M -0.464844 7.136719 " clip-rule="nonzero"/></clipPath><clipPath id="a8db4e4a1e"><path d="M 7 21 L 9 21 L 9 26 L 7 26 Z M 7 21 " clip-rule="nonzero"/></clipPath><clipPath id="df2672c830"><path d="M -0.464844 7.136719 L 31.417969 -2.5 L 37.414062 17.335938 L 5.53125 26.972656 Z M -0.464844 7.136719 " clip-rule="nonzero"/></clipPath><clipPath id="18d1402125"><path d="M -0.464844 7.136719 L 31.417969 -2.5 L 37.414062 17.335938 L 5.53125 26.972656 Z M -0.464844 7.136719 " clip-rule="nonzero"/></clipPath><clipPath id="6b15d1524e"><path d="M -0.464844 7.136719 L 31.417969 -2.5 L 37.414062 17.335938 L 5.53125 26.972656 Z M -0.464844 7.136719 " clip-rule="nonzero"/></clipPath><clipPath id="9847e48237"><path d="M 8 22 L 10 22 L 10 26 L 8 26 Z M 8 22 " clip-rule="nonzero"/></clipPath><clipPath id="01be182a62"><path d="M -0.464844 7.136719 L 31.417969 -2.5 L 37.414062 17.335938 L 5.53125 26.972656 Z M -0.464844 7.136719 " clip-rule="nonzero"/></clipPath><clipPath id="0b3e8bd62b"><path d="M -0.464844 7.136719 L 31.417969 -2.5 L 37.414062 17.335938 L 5.53125 26.972656 Z M -0.464844 7.136719 " clip-rule="nonzero"/></clipPath><clipPath id="25896134c2"><path d="M -0.464844 7.136719 L 31.417969 -2.5 L 37.414062 17.335938 L 5.53125 26.972656 Z M -0.464844 7.136719 " clip-rule="nonzero"/></clipPath><clipPath id="ad6f538687"><path d="M 8 21 L 11 21 L 11 26 L 8 26 Z M 8 21 " clip-rule="nonzero"/></clipPath><clipPath id="8b0625bef8"><path d="M -0.464844 7.136719 L 31.417969 -2.5 L 37.414062 17.335938 L 5.53125 26.972656 Z M -0.464844 7.136719 " clip-rule="nonzero"/></clipPath><clipPath id="ba20eb6457"><path d="M -0.464844 7.136719 L 31.417969 -2.5 L 37.414062 17.335938 L 5.53125 26.972656 Z M -0.464844 7.136719 " clip-rule="nonzero"/></clipPath><clipPath id="aafc0a4c70"><path d="M -0.464844 7.136719 L 31.417969 -2.5 L 37.414062 17.335938 L 5.53125 26.972656 Z M -0.464844 7.136719 " clip-rule="nonzero"/></clipPath><clipPath id="338c94784f"><path d="M 6 18 L 9 18 L 9 21 L 6 21 Z M 6 18 " clip-rule="nonzero"/></clipPath><clipPath id="485e9b0ec0"><path d="M -0.464844 7.136719 L 31.417969 -2.5 L 37.414062 17.335938 L 5.53125 26.972656 Z M -0.464844 7.136719 " clip-rule="nonzero"/></clipPath><clipPath id="b2d6328701"><path d="M -0.464844 7.136719 L 31.417969 -2.5 L 37.414062 17.335938 L 5.53125 26.972656 Z M -0.464844 7.136719 " clip-rule="nonzero"/></clipPath><clipPath id="e392cef6e1"><path d="M -0.464844 7.136719 L 31.417969 -2.5 L 37.414062 17.335938 L 5.53125 26.972656 Z M -0.464844 7.136719 " clip-rule="nonzero"/></clipPath></defs><g fill="#000000" fill-opacity="1"><g transform="translate(9.028897, 31.275143)"><g><path d="M 0.609375 -21.921875 L 0.609375 -17.859375 L 7.203125 -17.859375 L 7.203125 0 L 11.765625 0 L 11.765625 -17.859375 L 18.3125 -17.859375 L 18.3125 -21.921875 Z M 0.609375 -21.921875 "/></g></g></g><g clip-path="url(#03e9016646)"><g clip-path="url(#33e21669db)"><g clip-path="url(#ccbed3a41b)"><g clip-path="url(#03e0c01315)"><path fill="#0f0f0f" d="M 15.761719 15.773438 C 17.945312 14.863281 20.679688 14.222656 23.070312 14.0625 C 24.464844 13.964844 26.75 13.972656 27.726562 14.898438 C 27.703125 14.835938 27.671875 14.777344 27.628906 14.726562 C 27.414062 13.867188 27.179688 12.941406 26.9375 11.988281 C 26.9375 11.988281 26.9375 11.992188 26.9375 11.992188 C 26.746094 11.234375 26.550781 10.46875 26.359375 9.707031 C 26 8.957031 24.28125 8.59375 21.855469 8.75 C 19.480469 8.910156 16.757812 9.53125 14.578125 10.417969 C 12.171875 11.394531 10.671875 12.582031 10.34375 13.761719 C 10.351562 13.859375 10.382812 14.09375 10.445312 14.320312 C 10.605469 14.867188 10.792969 15.53125 10.984375 16.207031 C 10.980469 16.207031 10.976562 16.207031 10.972656 16.207031 C 11.28125 17.300781 11.511719 18.152344 11.65625 18.703125 C 12.183594 17.832031 13.335938 16.777344 15.761719 15.773438 " fill-opacity="1" fill-rule="nonzero"/></g></g></g></g><g clip-path="url(#ebb5ca7451)"><g clip-path="url(#561b8e6383)"><g clip-path="url(#a1f5839f84)"><g clip-path="url(#9d35ffe832)"><path fill="#0f0f0f" d="M 33.4375 4.734375 L 15.351562 2.386719 C 15.28125 2.375 15.210938 2.398438 15.160156 2.445312 L 1.796875 14.058594 C 1.71875 14.125 1.6875 14.234375 1.71875 14.339844 C 1.75 14.441406 1.832031 14.519531 1.933594 14.53125 L 10.304688 15.816406 C 10.175781 15.363281 10.035156 14.878906 9.890625 14.367188 C 9.789062 14.011719 9.757812 13.65625 9.757812 13.640625 L 9.753906 13.589844 L 9.765625 13.542969 C 10.011719 12.574219 11 11.132812 14.332031 9.78125 C 16.5625 8.875 19.34375 8.234375 21.773438 8.074219 C 23.398438 7.96875 26.21875 8 26.835938 9.394531 L 26.84375 9.417969 L 26.851562 9.445312 C 26.996094 10.019531 27.144531 10.601562 27.289062 11.175781 L 33.585938 5.203125 C 33.660156 5.132812 33.6875 5.023438 33.65625 4.921875 C 33.621094 4.824219 33.535156 4.75 33.4375 4.734375 " fill-opacity="1" fill-rule="nonzero"/></g></g></g></g><g clip-path="url(#a3e92d797f)"><g clip-path="url(#d61b9724d8)"><g clip-path="url(#c9e5fd03ee)"><g clip-path="url(#3627080eaf)"><path fill="#ff9a12" d="M 7.785156 19.304688 L 7.292969 19.445312 L 5.753906 13.996094 L 6.25 13.859375 L 7.785156 19.304688 " fill-opacity="1" fill-rule="nonzero"/></g></g></g></g><g clip-path="url(#a5c41ee09f)"><g clip-path="url(#a5ff90a355)"><g clip-path="url(#69d18f8fb2)"><g clip-path="url(#e355641b74)"><path fill="#ffb608" d="M 7.378906 20.148438 C 6.847656 21.585938 7.03125 23.273438 7.765625 25.160156 C 9.335938 25.820312 10.277344 25.5 10.726562 24.421875 C 9.617188 20.699219 8.5 19.019531 7.378906 20.148438 " fill-opacity="1" fill-rule="evenodd"/></g></g></g></g><g clip-path="url(#a8db4e4a1e)"><g clip-path="url(#df2672c830)"><g clip-path="url(#18d1402125)"><g clip-path="url(#6b15d1524e)"><path fill="#e4a91d" d="M 8.753906 25.464844 L 7.503906 21.699219 L 8.195312 25.324219 C 8.390625 25.386719 8.578125 25.433594 8.753906 25.464844 " fill-opacity="1" fill-rule="evenodd"/></g></g></g></g><g clip-path="url(#9847e48237)"><g clip-path="url(#01be182a62)"><g clip-path="url(#0b3e8bd62b)"><g clip-path="url(#25896134c2)"><path fill="#e4a91d" d="M 8.78125 23.175781 L 9.277344 24.785156 L 8.398438 22.753906 L 9.351562 25.394531 C 9.523438 25.390625 9.679688 25.371094 9.820312 25.339844 L 9.835938 25.335938 L 8.78125 23.175781 " fill-opacity="1" fill-rule="evenodd"/></g></g></g></g><g clip-path="url(#ad6f538687)"><g clip-path="url(#8b0625bef8)"><g clip-path="url(#ba20eb6457)"><g clip-path="url(#aafc0a4c70)"><path fill="#e4a91d" d="M 8.988281 21.601562 L 10.125 25.226562 C 10.210938 25.164062 10.289062 25.09375 10.363281 25.015625 L 9.917969 23.230469 L 9.640625 23.183594 L 8.988281 21.601562 " fill-opacity="1" fill-rule="evenodd"/></g></g></g></g><g clip-path="url(#338c94784f)"><g clip-path="url(#485e9b0ec0)"><g clip-path="url(#b2d6328701)"><g clip-path="url(#e392cef6e1)"><path fill="#e4a91d" d="M 7.480469 18.539062 C 7.996094 18.40625 8.511719 18.695312 8.628906 19.175781 C 8.75 19.65625 8.425781 20.152344 7.910156 20.28125 C 7.394531 20.410156 6.875 20.125 6.757812 19.644531 C 6.640625 19.160156 6.960938 18.667969 7.480469 18.539062 " fill-opacity="1" fill-rule="evenodd"/></g></g></g></g></svg>