<svg xmlns="http://www.w3.org/2000/svg" xmlns:xlink="http://www.w3.org/1999/xlink" width="140" zoomAndPan="magnify" viewBox="0 0 104.88 35.25" height="47" preserveAspectRatio="xMidYMid meet" version="1.0"><defs><g/><clipPath id="1172c8e756"><path d="M 1.035156 0 L 103.730469 0 L 103.730469 34.515625 L 1.035156 34.515625 Z M 1.035156 0 " clip-rule="nonzero"/></clipPath><clipPath id="834e9fd25f"><path d="M 10 9 L 26 9 L 26 19 L 10 19 Z M 10 9 " clip-rule="nonzero"/></clipPath><clipPath id="d39e7689db"><path d="M 1.035156 8.496094 L 29.152344 -0.00390625 L 34.464844 17.570312 L 6.347656 26.070312 Z M 1.035156 8.496094 " clip-rule="nonzero"/></clipPath><clipPath id="ae6114368f"><path d="M 1.035156 8.496094 L 29.152344 -0.00390625 L 34.464844 17.570312 L 6.347656 26.070312 Z M 1.035156 8.496094 " clip-rule="nonzero"/></clipPath><clipPath id="b86d38f9fd"><path d="M 1.035156 8.496094 L 29.152344 -0.00390625 L 34.464844 17.570312 L 6.347656 26.070312 Z M 1.035156 8.496094 " clip-rule="nonzero"/></clipPath><clipPath id="e0afb84c24"><path d="M 2 4 L 32 4 L 32 17 L 2 17 Z M 2 4 " clip-rule="nonzero"/></clipPath><clipPath id="30f9c0cdf0"><path d="M 1.035156 8.496094 L 29.152344 -0.00390625 L 34.464844 17.570312 L 6.347656 26.070312 Z M 1.035156 8.496094 " clip-rule="nonzero"/></clipPath><clipPath id="c6f1653609"><path d="M 1.035156 8.496094 L 29.152344 -0.00390625 L 34.464844 17.570312 L 6.347656 26.070312 Z M 1.035156 8.496094 " clip-rule="nonzero"/></clipPath><clipPath id="97ad004790"><path d="M 1.035156 8.496094 L 29.152344 -0.00390625 L 34.464844 17.570312 L 6.347656 26.070312 Z M 1.035156 8.496094 " clip-rule="nonzero"/></clipPath><clipPath id="5030499830"><path d="M 6 14 L 9 14 L 9 20 L 6 20 Z M 6 14 " clip-rule="nonzero"/></clipPath><clipPath id="2a8fe24e04"><path d="M 1.035156 8.496094 L 29.152344 -0.00390625 L 34.464844 17.570312 L 6.347656 26.070312 Z M 1.035156 8.496094 " clip-rule="nonzero"/></clipPath><clipPath id="ab9a54dd41"><path d="M 1.035156 8.496094 L 29.152344 -0.00390625 L 34.464844 17.570312 L 6.347656 26.070312 Z M 1.035156 8.496094 " clip-rule="nonzero"/></clipPath><clipPath id="abf22e742f"><path d="M 1.035156 8.496094 L 29.152344 -0.00390625 L 34.464844 17.570312 L 6.347656 26.070312 Z M 1.035156 8.496094 " clip-rule="nonzero"/></clipPath><clipPath id="7843f528fb"><path d="M 7 19 L 11 19 L 11 25 L 7 25 Z M 7 19 " clip-rule="nonzero"/></clipPath><clipPath id="5dcbf1e1f2"><path d="M 1.035156 8.496094 L 29.152344 -0.00390625 L 34.464844 17.570312 L 6.347656 26.070312 Z M 1.035156 8.496094 " clip-rule="nonzero"/></clipPath><clipPath id="006d05f567"><path d="M 1.035156 8.496094 L 29.152344 -0.00390625 L 34.464844 17.570312 L 6.347656 26.070312 Z M 1.035156 8.496094 " clip-rule="nonzero"/></clipPath><clipPath id="c5d6920aee"><path d="M 1.035156 8.496094 L 29.152344 -0.00390625 L 34.464844 17.570312 L 6.347656 26.070312 Z M 1.035156 8.496094 " clip-rule="nonzero"/></clipPath><clipPath id="752920f339"><path d="M 8 21 L 10 21 L 10 25 L 8 25 Z M 8 21 " clip-rule="nonzero"/></clipPath><clipPath id="8ce4988125"><path d="M 1.035156 8.496094 L 29.152344 -0.00390625 L 34.464844 17.570312 L 6.347656 26.070312 Z M 1.035156 8.496094 " clip-rule="nonzero"/></clipPath><clipPath id="d826a08eba"><path d="M 1.035156 8.496094 L 29.152344 -0.00390625 L 34.464844 17.570312 L 6.347656 26.070312 Z M 1.035156 8.496094 " clip-rule="nonzero"/></clipPath><clipPath id="018cde5a1c"><path d="M 1.035156 8.496094 L 29.152344 -0.00390625 L 34.464844 17.570312 L 6.347656 26.070312 Z M 1.035156 8.496094 " clip-rule="nonzero"/></clipPath><clipPath id="6e6b079a29"><path d="M 8 22 L 11 22 L 11 25 L 8 25 Z M 8 22 " clip-rule="nonzero"/></clipPath><clipPath id="6738d13169"><path d="M 1.035156 8.496094 L 29.152344 -0.00390625 L 34.464844 17.570312 L 6.347656 26.070312 Z M 1.035156 8.496094 " clip-rule="nonzero"/></clipPath><clipPath id="e14125ac52"><path d="M 1.035156 8.496094 L 29.152344 -0.00390625 L 34.464844 17.570312 L 6.347656 26.070312 Z M 1.035156 8.496094 " clip-rule="nonzero"/></clipPath><clipPath id="58fdbbcf60"><path d="M 1.035156 8.496094 L 29.152344 -0.00390625 L 34.464844 17.570312 L 6.347656 26.070312 Z M 1.035156 8.496094 " clip-rule="nonzero"/></clipPath><clipPath id="5c82069de0"><path d="M 9 21 L 11 21 L 11 25 L 9 25 Z M 9 21 " clip-rule="nonzero"/></clipPath><clipPath id="107576ee47"><path d="M 1.035156 8.496094 L 29.152344 -0.00390625 L 34.464844 17.570312 L 6.347656 26.070312 Z M 1.035156 8.496094 " clip-rule="nonzero"/></clipPath><clipPath id="a346d19063"><path d="M 1.035156 8.496094 L 29.152344 -0.00390625 L 34.464844 17.570312 L 6.347656 26.070312 Z M 1.035156 8.496094 " clip-rule="nonzero"/></clipPath><clipPath id="f43864441a"><path d="M 1.035156 8.496094 L 29.152344 -0.00390625 L 34.464844 17.570312 L 6.347656 26.070312 Z M 1.035156 8.496094 " clip-rule="nonzero"/></clipPath><clipPath id="2721df3970"><path d="M 7 18 L 10 18 L 10 21 L 7 21 Z M 7 18 " clip-rule="nonzero"/></clipPath><clipPath id="0ce6fbf043"><path d="M 1.035156 8.496094 L 29.152344 -0.00390625 L 34.464844 17.570312 L 6.347656 26.070312 Z M 1.035156 8.496094 " clip-rule="nonzero"/></clipPath><clipPath id="a2f753d961"><path d="M 1.035156 8.496094 L 29.152344 -0.00390625 L 34.464844 17.570312 L 6.347656 26.070312 Z M 1.035156 8.496094 " clip-rule="nonzero"/></clipPath><clipPath id="a3935d327d"><path d="M 1.035156 8.496094 L 29.152344 -0.00390625 L 34.464844 17.570312 L 6.347656 26.070312 Z M 1.035156 8.496094 " clip-rule="nonzero"/></clipPath><clipPath id="4241f52b9f"><path d="M 10.035156 21.535156 L 98 21.535156 L 98 34.515625 L 10.035156 34.515625 Z M 10.035156 21.535156 " clip-rule="nonzero"/></clipPath></defs><g clip-path="url(#1172c8e756)"><path fill="" d="M 1.035156 0 L 103.847656 0 L 103.847656 34.515625 L 1.035156 34.515625 Z M 1.035156 0 " fill-opacity="0" fill-rule="nonzero"/><path fill="" d="M 1.035156 0 L 103.847656 0 L 103.847656 34.515625 L 1.035156 34.515625 Z M 1.035156 0 " fill-opacity="0" fill-rule="nonzero"/></g><g fill="#000000" fill-opacity="1"><g transform="translate(11.391884, 27.556113)"><g><path d="M 0.46875 -16.53125 L 0.46875 -13.46875 L 5.4375 -13.46875 L 5.4375 0 L 8.875 0 L 8.875 -13.46875 L 13.8125 -13.46875 L 13.8125 -16.53125 Z M 0.46875 -16.53125 "/></g></g></g><g fill="#f8801d" fill-opacity="1"><g transform="translate(24.748329, 27.556113)"><g><path d="M 12 0 C 11.65625 -0.609375 11.546875 -1.390625 11.546875 -2.5 L 11.546875 -7.796875 C 11.546875 -10.75 9.796875 -12.265625 6.359375 -12.265625 C 3.140625 -12.265625 1.484375 -11.03125 1.25 -8.40625 L 4.25 -8.359375 C 4.40625 -9.46875 5.03125 -9.9375 6.390625 -9.9375 C 7.6875 -9.9375 8.40625 -9.515625 8.40625 -8.640625 L 8.40625 -7.75 L 4.21875 -6.921875 C 1.8125 -6.4375 0.578125 -5.203125 0.578125 -3.296875 C 0.578125 -1.109375 2.203125 0.34375 4.734375 0.34375 C 6.3125 0.34375 7.609375 -0.234375 8.421875 -1.203125 C 8.5 -0.796875 8.59375 -0.421875 8.6875 0 Z M 5.671875 -2.0625 C 4.453125 -2.0625 3.78125 -2.640625 3.78125 -3.5 C 3.78125 -4.296875 4.34375 -4.8125 5.34375 -5.015625 L 8.40625 -5.671875 L 8.40625 -4.78125 C 8.40625 -3.015625 7.21875 -2.0625 5.671875 -2.0625 Z M 5.671875 -2.0625 "/></g></g></g><g fill="#f8801d" fill-opacity="1"><g transform="translate(36.749344, 27.556113)"><g><path d="M 4.671875 0 L 4.671875 -16.53125 L 1.390625 -16.53125 L 1.390625 0 Z M 4.671875 0 "/></g></g></g><g fill="#f8801d" fill-opacity="1"><g transform="translate(41.879287, 27.556113)"><g><path d="M 12.796875 -5.578125 C 12.796875 -9.78125 10.1875 -12.28125 6.640625 -12.28125 C 2.96875 -12.28125 0.75 -9.546875 0.75 -6.03125 C 0.75 -2.375 3.015625 0.390625 6.984375 0.390625 C 9.6875 0.390625 11.671875 -0.859375 12.484375 -3.453125 L 9.234375 -3.6875 C 8.84375 -2.640625 8.0625 -2.140625 6.921875 -2.140625 C 5.296875 -2.140625 4.25 -3.203125 4.109375 -5.015625 L 12.796875 -5.015625 Z M 6.75 -9.890625 C 8.25 -9.890625 9.21875 -8.921875 9.40625 -7.25 L 4.09375 -7.25 C 4.25 -8.890625 5.265625 -9.890625 6.75 -9.890625 Z M 6.75 -9.890625 "/></g></g></g><g fill="#f8801d" fill-opacity="1"><g transform="translate(54.48384, 27.556113)"><g><path d="M 8.109375 -12.28125 C 6.578125 -12.28125 5.4375 -11.65625 4.640625 -10.359375 L 4.59375 -11.984375 L 1.390625 -11.984375 L 1.390625 0 L 4.671875 0 L 4.671875 -6.40625 C 4.671875 -8.203125 5.625 -9.328125 7.015625 -9.328125 C 8.171875 -9.328125 8.75 -8.546875 8.75 -7.296875 L 8.75 0 L 12.03125 0 L 12.03125 -8.03125 C 12.03125 -10.640625 10.59375 -12.28125 8.109375 -12.28125 Z M 8.109375 -12.28125 "/></g></g></g><g fill="#f8801d" fill-opacity="1"><g transform="translate(66.972324, 27.556113)"><g><path d="M 7.46875 -9.5625 L 7.46875 -11.984375 L 5.25 -11.90625 L 5.25 -15.671875 L 1.96875 -15.671875 L 1.96875 -11.9375 L 0.34375 -11.984375 L 0.34375 -9.5625 L 1.96875 -9.640625 L 1.96875 -3.359375 C 1.96875 -0.953125 2.921875 0 5.34375 0 L 7.46875 0 L 7.46875 -2.625 L 6.390625 -2.625 C 5.578125 -2.625 5.25 -2.953125 5.25 -3.765625 L 5.25 -9.640625 Z M 7.46875 -9.5625 "/></g></g></g><g fill="#f8801d" fill-opacity="1"><g transform="translate(73.982525, 27.556113)"><g><path d="M 7.390625 -12.3125 C 6.0625 -12.3125 5.078125 -11.609375 4.546875 -10.328125 L 4.59375 -11.984375 L 1.390625 -11.984375 L 1.390625 0 L 4.671875 0 L 4.671875 -5.828125 C 4.671875 -8.15625 5.640625 -9.28125 7.640625 -9.28125 C 7.875 -9.28125 8.078125 -9.265625 8.3125 -9.234375 L 8.3125 -12.21875 C 7.984375 -12.28125 7.65625 -12.3125 7.390625 -12.3125 Z M 7.390625 -12.3125 "/></g></g></g><g fill="#f8801d" fill-opacity="1"><g transform="translate(81.828401, 27.556113)"><g><path d="M 12 0 C 11.65625 -0.609375 11.546875 -1.390625 11.546875 -2.5 L 11.546875 -7.796875 C 11.546875 -10.75 9.796875 -12.265625 6.359375 -12.265625 C 3.140625 -12.265625 1.484375 -11.03125 1.25 -8.40625 L 4.25 -8.359375 C 4.40625 -9.46875 5.03125 -9.9375 6.390625 -9.9375 C 7.6875 -9.9375 8.40625 -9.515625 8.40625 -8.640625 L 8.40625 -7.75 L 4.21875 -6.921875 C 1.8125 -6.4375 0.578125 -5.203125 0.578125 -3.296875 C 0.578125 -1.109375 2.203125 0.34375 4.734375 0.34375 C 6.3125 0.34375 7.609375 -0.234375 8.421875 -1.203125 C 8.5 -0.796875 8.59375 -0.421875 8.6875 0 Z M 5.671875 -2.0625 C 4.453125 -2.0625 3.78125 -2.640625 3.78125 -3.5 C 3.78125 -4.296875 4.34375 -4.8125 5.34375 -5.015625 L 8.40625 -5.671875 L 8.40625 -4.78125 C 8.40625 -3.015625 7.21875 -2.0625 5.671875 -2.0625 Z M 5.671875 -2.0625 "/></g></g></g><g clip-path="url(#834e9fd25f)"><g clip-path="url(#d39e7689db)"><g clip-path="url(#ae6114368f)"><g clip-path="url(#b86d38f9fd)"><path fill="#0f0f0f" d="M 15.359375 16.160156 C 17.285156 15.359375 19.699219 14.792969 21.808594 14.652344 C 23.039062 14.570312 25.054688 14.578125 25.917969 15.398438 C 25.898438 15.34375 25.867188 15.292969 25.832031 15.246094 C 25.640625 14.484375 25.433594 13.664062 25.21875 12.820312 C 25.21875 12.820312 25.21875 12.820312 25.214844 12.824219 C 25.046875 12.152344 24.875 11.472656 24.703125 10.796875 C 24.386719 10.136719 22.867188 9.808594 20.730469 9.949219 C 18.632812 10.085938 16.230469 10.632812 14.308594 11.417969 C 12.1875 12.28125 10.863281 13.328125 10.574219 14.371094 C 10.582031 14.460938 10.609375 14.667969 10.667969 14.867188 C 10.804688 15.351562 10.972656 15.941406 11.144531 16.539062 C 11.140625 16.539062 11.136719 16.539062 11.132812 16.539062 C 11.40625 17.507812 11.613281 18.261719 11.738281 18.75 C 12.203125 17.976562 13.21875 17.046875 15.359375 16.160156 " fill-opacity="1" fill-rule="nonzero"/></g></g></g></g><g clip-path="url(#e0afb84c24)"><g clip-path="url(#30f9c0cdf0)"><g clip-path="url(#c6f1653609)"><g clip-path="url(#97ad004790)"><path fill="#0f0f0f" d="M 30.945312 6.40625 L 14.984375 4.304688 C 14.921875 4.296875 14.859375 4.316406 14.8125 4.355469 L 3.035156 14.628906 C 2.964844 14.6875 2.9375 14.785156 2.964844 14.875 C 2.992188 14.964844 3.066406 15.035156 3.15625 15.046875 L 10.542969 16.195312 C 10.429688 15.792969 10.304688 15.363281 10.175781 14.90625 C 10.085938 14.597656 10.058594 14.277344 10.058594 14.265625 L 10.054688 14.222656 L 10.066406 14.179688 C 10.28125 13.320312 11.152344 12.046875 14.09375 10.851562 C 16.058594 10.050781 18.511719 9.488281 20.65625 9.351562 C 22.09375 9.257812 24.578125 9.285156 25.125 10.523438 L 25.132812 10.542969 L 25.140625 10.566406 C 25.269531 11.078125 25.398438 11.589844 25.527344 12.101562 L 31.078125 6.820312 C 31.144531 6.757812 31.167969 6.660156 31.136719 6.570312 C 31.109375 6.480469 31.035156 6.417969 30.945312 6.40625 " fill-opacity="1" fill-rule="nonzero"/></g></g></g></g><g clip-path="url(#5030499830)"><g clip-path="url(#2a8fe24e04)"><g clip-path="url(#ab9a54dd41)"><g clip-path="url(#abf22e742f)"><path fill="#ff9a12" d="M 8.324219 19.28125 L 7.886719 19.402344 L 6.527344 14.578125 L 6.960938 14.453125 L 8.324219 19.28125 " fill-opacity="1" fill-rule="nonzero"/></g></g></g></g><g clip-path="url(#7843f528fb)"><g clip-path="url(#5dcbf1e1f2)"><g clip-path="url(#006d05f567)"><g clip-path="url(#c5d6920aee)"><path fill="#ffb608" d="M 7.964844 20.027344 C 7.5 21.300781 7.664062 22.796875 8.3125 24.464844 C 9.699219 25.050781 10.527344 24.765625 10.925781 23.8125 C 9.941406 20.515625 8.953125 19.027344 7.964844 20.027344 " fill-opacity="1" fill-rule="evenodd"/></g></g></g></g><g clip-path="url(#752920f339)"><g clip-path="url(#8ce4988125)"><g clip-path="url(#d826a08eba)"><g clip-path="url(#018cde5a1c)"><path fill="#e4a91d" d="M 9.183594 24.734375 L 8.074219 21.402344 L 8.691406 24.609375 C 8.867188 24.664062 9.027344 24.707031 9.183594 24.734375 " fill-opacity="1" fill-rule="evenodd"/></g></g></g></g><g clip-path="url(#6e6b079a29)"><g clip-path="url(#6738d13169)"><g clip-path="url(#e14125ac52)"><g clip-path="url(#58fdbbcf60)"><path fill="#e4a91d" d="M 9.207031 22.710938 L 9.648438 24.136719 L 8.871094 22.335938 L 9.714844 24.671875 C 9.863281 24.671875 10 24.65625 10.125 24.628906 L 10.136719 24.621094 L 9.207031 22.710938 " fill-opacity="1" fill-rule="evenodd"/></g></g></g></g><g clip-path="url(#5c82069de0)"><g clip-path="url(#107576ee47)"><g clip-path="url(#a346d19063)"><g clip-path="url(#f43864441a)"><path fill="#e4a91d" d="M 9.386719 21.3125 L 10.394531 24.527344 C 10.46875 24.472656 10.539062 24.410156 10.601562 24.339844 L 10.210938 22.757812 L 9.964844 22.71875 L 9.386719 21.3125 " fill-opacity="1" fill-rule="evenodd"/></g></g></g></g><g clip-path="url(#2721df3970)"><g clip-path="url(#0ce6fbf043)"><g clip-path="url(#a2f753d961)"><g clip-path="url(#a3935d327d)"><path fill="#e4a91d" d="M 8.054688 18.601562 C 8.507812 18.484375 8.964844 18.738281 9.070312 19.164062 C 9.175781 19.59375 8.890625 20.03125 8.433594 20.144531 C 7.980469 20.257812 7.523438 20.003906 7.417969 19.578125 C 7.3125 19.152344 7.59375 18.714844 8.054688 18.601562 " fill-opacity="1" fill-rule="evenodd"/></g></g></g></g><g clip-path="url(#4241f52b9f)"><path fill="#f8801d" d="M 11.023438 34.292969 C 16.367188 31.53125 22.601562 30.894531 28.527344 30.75 C 34.90625 30.585938 41.265625 31.003906 47.609375 31.585938 C 54.027344 32.1875 60.425781 32.929688 66.859375 33.386719 C 70.058594 33.605469 73.277344 33.730469 76.492188 33.75 C 79.511719 33.765625 82.5625 33.785156 85.582031 33.421875 C 88.617188 33.058594 91.652344 32.203125 93.976562 30.113281 C 96.015625 28.277344 97.484375 25.480469 96.921875 22.699219 C 96.6875 21.535156 94.867188 21.808594 94.867188 22.972656 C 94.886719 25.441406 93.921875 27.53125 92.015625 29.097656 C 89.871094 30.859375 87 31.476562 84.328125 31.804688 C 78.257812 32.511719 72.074219 32.277344 65.988281 31.859375 C 53.628906 30.988281 41.304688 28.96875 28.890625 29.40625 C 22.5625 29.605469 16.167969 30.332031 10.660156 33.675781 C 10.257812 33.914062 10.605469 34.511719 11.023438 34.292969 Z M 11.023438 34.292969 " fill-opacity="1" fill-rule="nonzero"/></g><path fill="#f8801d" d="M 13.421875 30.257812 C 18.839844 28.277344 24.4375 27.804688 30.160156 27.769531 C 30.472656 27.769531 30.578125 27.242188 30.234375 27.207031 C 24.507812 26.351562 18.546875 27.714844 13.292969 30.023438 C 13.183594 30.078125 13.277344 30.3125 13.421875 30.257812 Z M 13.421875 30.257812 " fill-opacity="1" fill-rule="nonzero"/><path fill="#f8801d" d="M 91.851562 33.441406 C 93.941406 33.148438 95.867188 32.148438 97.324219 30.640625 C 98.066406 29.878906 98.703125 29.003906 99.140625 28.042969 C 99.503906 27.277344 100.175781 25.914062 99.632812 25.132812 C 99.375 24.769531 98.941406 24.714844 98.613281 25.007812 C 97.996094 25.535156 98.085938 26.734375 97.832031 27.496094 C 97.539062 28.371094 97.121094 29.1875 96.59375 29.933594 C 95.414062 31.550781 93.722656 32.730469 91.796875 33.257812 C 91.667969 33.277344 91.722656 33.457031 91.851562 33.441406 Z M 91.851562 33.441406 " fill-opacity="1" fill-rule="nonzero"/></svg>